<?xml version="1.0" encoding="UTF-8"?>
<svg width="80px" height="60px" viewBox="0 0 80 60" version="1.1" xmlns="http://www.w3.org/2000/svg" xmlns:xlink="http://www.w3.org/1999/xlink">
    <!-- Generator: Sketch 48.2 (47327) - http://www.bohemiancoding.com/sketch -->
    <title>icon</title>
    <desc>Created with Sketch.</desc>
    <defs></defs>
    <g id="User-App" stroke="none" stroke-width="1" fill="none" fill-rule="evenodd">
        <g id="icon" fill-rule="nonzero">
            <g id="car" transform="translate(40.000000, 29.785714) scale(-1, 1) translate(-40.000000, -29.785714) translate(4.000000, 15.000000)">
                <polygon id="Shape" fill="#000000" points="30 10.8613281 34.7998047 10.8613281 34.7998047 13.2617188 30 13.2617188"></polygon>
                <path d="M70.9702149,7.2734375 L62.8188476,6.109375 C61.3325195,5.196289 59.790039,4.37890625 58.199707,3.66162113 C52.9477539,1.28271488 47.2475586,0.05517575 41.4814452,0.0615235 L40.0654297,0.0615235 C33.2607422,0.06640625 26.5649414,1.77392575 20.5883789,5.02832025 L16.4746094,7.272461 C11.6591797,7.32666013 6.9365235,8.60742188 2.75292975,10.9921875 C1.05273437,11.9672851 0.0029296875,13.7763673 0,15.7358399 L0,22.8613281 C0,23.524414 0.537109375,24.0615235 1.20019525,24.0615235 L5.22949225,24.0615235 C6.540039,27.800293 10.6333007,29.769043 14.3720702,28.4584961 C16.4301757,27.7373048 18.0478515,26.1191406 18.769043,24.0615235 L50.8295899,24.0615235 C52.1401367,27.800293 56.2333985,29.769043 59.972168,28.4584961 C62.0297851,27.7373048 63.6479492,26.1191406 64.3691406,24.0615235 L64.7998047,24.0615235 C64.9526367,24.0615235 65.1040039,24.0327149 65.2460937,23.9760743 L69.1328125,22.4165039 C70.8691406,21.7290039 72.0063476,20.0483399 72,18.1816406 L72,8.46142575 C72,7.86474613 71.5610351,7.3583985 70.9702149,7.2734375 Z M16.7026367,22.621582 C16.171875,25.21875 13.6362305,26.894043 11.0390625,26.3632813 C8.44140625,25.8325195 6.76611325,23.296875 7.296875,20.6992188 C7.828125,18.1020508 10.3637695,16.4267578 12.9609375,16.9575195 C15.1958007,17.4140625 16.800293,19.3803711 16.7998047,21.6616211 C16.7998047,21.9838868 16.7670899,22.305664 16.7026367,22.621582 Z M38.3999024,21.6616211 L19.199707,21.6616211 C19.199707,17.6850586 15.9765625,14.4614258 12,14.4614258 C8.0234375,14.4614258 4.79980475,17.6850586 4.79980475,21.6616211 L2.39990237,21.6616211 L2.39990237,15.7358399 C2.40136725,14.6367188 2.99023437,13.621582 3.944336,13.0756836 C7.8603515,10.8398438 12.2910156,9.663086 16.7998047,9.66162113 L38.3999024,9.66162113 L38.3999024,21.6616211 Z M38.3999024,7.26171875 L21.5063476,7.26171875 L21.737793,7.13525388 C26.868164,4.347168 32.5668945,2.7666015 38.3999024,2.51416013 L38.3999024,7.26171875 Z M40.7998047,2.46140232 L41.4790039,2.46142575 C46.3149414,2.45605475 51.1069336,3.3740235 55.5986327,5.16650388 L53.503418,7.26171875 L40.7998047,7.26171875 L40.7998047,2.46140232 Z M62.3027344,22.621582 C61.7719726,25.21875 59.2363281,26.894043 56.6386719,26.3632813 C54.0415039,25.8325195 52.366211,23.296875 52.8969726,20.6992188 C53.4277344,18.1020508 55.9638672,16.4267578 58.5610351,16.9575195 C60.7958985,17.4140625 62.4003906,19.3803711 62.3999024,21.6616211 C62.3999024,21.9838868 62.3671875,22.305664 62.3027344,22.621582 Z M69.6000976,10.8613281 L66,10.8613281 L66,13.2617188 L69.6000976,13.2617188 L69.6000976,18.1816406 C69.6030274,19.065918 69.0639649,19.8618164 68.2416992,20.1865235 L64.7998047,21.5688476 C64.7998047,21.4584961 64.7856445,21.3491211 64.7783202,21.2387695 C64.7709961,21.128418 64.7685547,20.9990235 64.756836,20.8789063 C64.7446289,20.758789 64.7207031,20.6386719 64.7016601,20.519043 C64.6821289,20.3989258 64.6679687,20.2788086 64.644043,20.1699219 C64.6201172,20.0605469 64.584961,19.9394531 64.553711,19.8251953 C64.522461,19.7114258 64.4985351,19.5961914 64.4624024,19.484375 C64.4267577,19.3730469 64.3833007,19.2661133 64.3427735,19.1567383 C64.3017577,19.0478515 64.2646485,18.9350586 64.2226562,18.8266601 C64.180664,18.71875 64.1240235,18.6206055 64.0737305,18.5185548 C64.0234375,18.4165039 63.9741211,18.3046875 63.9179687,18.2016601 C63.8613281,18.0986328 63.7978515,18.0107423 63.7436524,17.915039 C63.6899414,17.8188476 63.6240235,17.7094726 63.555664,17.6113281 C63.4868164,17.5126953 63.4233399,17.4350586 63.3574219,17.3461914 C63.2915039,17.2573243 63.2167969,17.152832 63.1401367,17.0605469 C63.0634765,16.9682618 62.9916992,16.8959961 62.9169922,16.8203125 C62.8427735,16.7451173 62.7597656,16.6430664 62.6772461,16.559082 C62.5942382,16.4750976 62.5126952,16.4086914 62.4301757,16.3344726 C62.347168,16.2602539 62.2583007,16.1723633 62.1669922,16.0942383 C62.0761719,16.0166015 61.9833985,15.956543 61.8925781,15.8881836 C61.8012695,15.8198243 61.709961,15.746582 61.6142577,15.6826173 C61.5180664,15.6191406 61.4101562,15.5629883 61.3071289,15.4956055 C61.2036132,15.4282226 61.1196289,15.3754883 61.022461,15.3242188 C60.925293,15.272461 60.8041992,15.2182618 60.6938476,15.1655274 C60.5834961,15.112793 60.4970702,15.065918 60.3950195,15.0229493 C60.2929687,14.9794923 60.1547851,14.934082 60.0351562,14.8911133 C59.915039,14.8476563 59.836914,14.8139649 59.7348632,14.7817383 C59.5981445,14.7397461 59.4580077,14.7094726 59.3183594,14.6748048 C59.2270507,14.6533203 59.1396485,14.6245118 59.0473632,14.6054688 C58.8999024,14.5751953 58.7485351,14.5585938 58.5986327,14.5366211 C58.5097656,14.5249024 58.4248047,14.5053711 58.3359375,14.4970703 C58.0957031,14.4731445 57.855957,14.459961 57.6040039,14.459961 C53.6289062,14.4638673 50.4077149,17.6850586 50.4038086,21.6601563 L40.800293,21.6601563 L40.800293,9.66113275 L54,9.66113275 C54.3183594,9.66113275 54.6235351,9.534668 54.8481445,9.30957025 L57.959961,6.19775388 C59.2661132,6.819336 60.5361327,7.51416013 61.7641601,8.27880863 C61.9057617,8.3671875 62.0639649,8.425293 62.2294922,8.44921875 L69.6000976,9.50146488 L69.6000976,10.8613281 Z" id="Shape" fill="#4A4A4A"></path>
            </g>
        </g>
    </g>
</svg>