<?xml version="1.0" encoding="UTF-8"?>
<svg width="80px" height="60px" viewBox="0 0 80 60" version="1.1" xmlns="http://www.w3.org/2000/svg" xmlns:xlink="http://www.w3.org/1999/xlink">
    <!-- Generator: Sketch 48.2 (47327) - http://www.bohemiancoding.com/sketch -->
    <title>icon</title>
    <desc>Created with Sketch.</desc>
    <defs></defs>
    <g id="User-App" stroke="none" stroke-width="1" fill="none" fill-rule="evenodd">
        <g id="icon" fill="#4A4A4A" fill-rule="nonzero" stroke="#4A4A4A" stroke-width="0.5">
            <g id="gloves" transform="translate(17.000000, 7.000000)">
                <path d="M42.3953327,31.0576279 L45.6172295,19.3542135 C46.0606578,17.7358319 46.1196995,16.0376951 45.7897262,14.392922 C45.5452265,13.1901614 44.6705271,12.2085597 43.4961543,11.8190391 C43.4184553,11.7933845 43.3397639,11.7710525 43.2605094,11.7510597 L43.6069674,9.34847695 C43.8485606,7.66046197 43.4981611,5.94143337 42.6143064,4.47857118 C41.7924285,3.13032257 40.3201263,2.3044989 38.73029,2.30000168 C38.3268235,2.30018596 37.9270551,2.37620077 37.5521902,2.524014 L36.7785986,1.37442421 C36.2015479,0.5149199 35.2282905,-0.00110086379 34.1863256,1.76350378e-06 L33.4979435,1.76350378e-06 C31.925411,-5.20046905e-05 30.5994062,1.16097487 30.4062222,2.70705949 C30.1770752,2.55663314 29.9350706,2.42637719 29.6829818,2.31778451 C28.6504692,1.87302175 27.4525796,2.04793146 26.5934962,2.7688954 C25.7344128,3.48985935 25.3633129,4.63168424 25.6363898,5.71378421 L25.9134621,6.81174667 C25.0008939,6.36602195 23.9178929,6.43484163 23.0702843,6.99241741 C23.0465728,7.00804591 23.0231447,7.02400248 23,7.04028712 L23.8966821,8.2901454 C23.9071681,8.2827049 23.9179376,8.27540528 23.9287979,8.26819957 C24.3514788,7.99012245 24.8986435,7.98035428 25.3311628,8.24316407 C25.6220237,8.42045446 25.8823888,8.64269271 26.1023921,8.90145759 C26.2387586,9.0616815 26.4353761,9.15963241 26.6465229,9.1725327 L27.0727587,9.19854954 C27.318976,9.21359105 27.5576789,9.11143446 27.715398,8.92352221 C27.8731171,8.73560996 27.9309516,8.4844611 27.8711007,8.24737595 L27.1379413,5.34196048 C27.0078011,4.82641074 27.184583,4.28238598 27.5938764,3.93887597 C28.0031698,3.59536596 28.5738968,3.51202455 29.0658282,3.72393162 C30.0149643,4.13302329 30.7019453,4.97637407 30.9051035,5.9818607 C31.3468967,8.17262828 31.5696565,10.4012011 31.5701523,12.6352612 L31.5701523,14.5666679 C31.5701523,14.9900862 31.9166279,15.3333345 32.3440273,15.3333345 C32.7714266,15.3333345 33.1179022,14.9900862 33.1179022,14.5666679 L33.1179022,12.6352612 C33.1176546,11.2621707 33.0370334,9.89024982 32.8764445,8.52640714 C32.7640282,7.57158326 32.6128176,6.62313901 32.4228126,5.68107438 C32.4221519,5.67803263 32.421585,5.67503688 32.4210181,5.67204305 L31.9605848,3.39118201 C31.8684476,2.93488324 31.9876777,2.46169801 32.2854677,2.10182875 C32.5832576,1.74195949 33.0282293,1.53332556 33.4979435,1.53333504 L34.1863256,1.53333504 C34.7106612,1.53282181 35.2004119,1.79249241 35.4908224,2.22499197 L36.2944547,3.41921709 C35.6299618,4.19574456 35.3838957,5.24191336 35.6334688,6.22944898 L36.1710817,8.35963223 C36.6674684,10.3285722 36.4369864,12.4084517 35.5212424,14.2238078 C35.3973284,14.4688232 35.4148522,14.7607322 35.5672063,14.9894703 C35.7195604,15.2182083 35.9835722,15.3489848 36.2596957,15.3324903 C36.5358191,15.3159958 36.7820564,15.154739 36.9055635,14.9095222 C37.9864713,12.7667771 38.2585011,10.311789 37.6725422,7.98776825 L37.1349303,5.85753516 C37.0120869,5.37084786 37.1224467,4.85523213 37.4340912,4.4598161 C37.7457356,4.06440006 38.2239008,3.83329244 38.73029,3.83333495 C39.7768525,3.83628151 40.7460443,4.379919 41.2870441,5.26746539 C41.9884283,6.4281923 42.2664714,7.79222741 42.0747115,9.13163583 L41.7020907,11.7157078 C41.5703342,11.7425156 41.4402935,11.7770199 41.3126497,11.8190401 C40.1675655,12.1984563 39.235775,13.0365496 38.7442768,14.1291475 L36.3384815,19.4918848 L33.7251416,22.0808356 C33.4584424,22.3449564 33.224452,22.6396116 33.0281163,22.9585731 C31.1772534,22.7854298 29.4217362,22.0648149 27.9896632,20.8903595 L27.0015361,22.0705882 C28.5566867,23.3460707 30.4410474,24.165036 32.441522,24.4348702 C32.3767115,24.7472127 32.3440461,25.0652622 32.3440273,25.3841357 L32.3440273,36.0333337 L27.5613437,36.0333337 L26.1287474,28.9368948 L24.6110383,29.2375901 L26.1460348,36.8413189 L25.3823624,45.1639385 C25.3626802,45.3784495 25.4349923,45.591268 25.5816055,45.7503224 C25.7282187,45.9093767 25.9356072,45.9999932 26.1530277,46 L41.6305266,46 C41.8479468,45.9999926 42.0553347,45.9093759 42.2019475,45.7503217 C42.3485603,45.5912674 42.4208721,45.3784491 42.40119,45.1639385 L41.6305266,36.765186 L41.6305266,32.6127901 C41.9814901,32.1464089 42.2409218,31.6188786 42.3953327,31.0576279 Z M33.8917772,25.3841357 C33.889475,24.5513552 34.2235885,23.7522781 34.8196339,23.1650422 L37.5345255,20.4754386 C37.6016937,20.4089133 37.6559102,20.3306935 37.6944584,20.2446987 L40.1586339,14.7519242 C40.4731453,14.052754 41.0694144,13.5164483 41.802173,13.2736664 C42.3204314,13.1025413 42.8879111,13.1601191 43.360396,13.4317672 C43.8328808,13.7034153 44.1648786,14.1629786 44.2720172,14.6936662 C44.5551341,16.104997 44.5044994,17.5621084 44.1240813,18.9508089 L40.9021845,30.6542204 C40.605055,31.7334695 39.7504821,32.5744235 38.6591175,32.8615406 C37.567753,33.1486577 36.4046289,32.8385211 35.6061713,32.0475 L34.8196377,31.2682926 C34.2235909,30.6810573 33.889476,29.8819801 33.8917772,29.049199 L33.8917772,25.3841357 Z M33.8917772,32.5175855 L34.5116703,33.1317056 C35.9839487,34.5922498 38.2501726,34.9203581 40.0827767,33.9383012 L40.0827767,36.0333337 L33.8917772,36.0333337 L33.8917772,32.5175855 Z M27.0004924,44.4666667 L27.6336111,37.566667 L40.1499432,37.566667 L40.5016917,41.4000002 L29.2485275,41.4000002 L29.2485275,42.9333335 L40.6424005,42.9333335 L40.7830619,44.4666667 L27.0004924,44.4666667 Z" id="Shape"></path>
                <path d="M21.6626426,36.7652349 L21.6626426,33.8907732 L22.1451444,32.7750502 C24.8940923,26.4263751 26.533974,19.6608252 26.9947141,12.7675066 C27.0660364,11.707706 26.4095055,10.7327733 25.3945545,10.3913078 C24.3796036,10.0498424 23.259788,10.4271492 22.6652336,11.310916 L21.0801273,13.6670795 L21.6603758,6.19216277 C21.665781,6.12219039 21.6614915,6.05181408 21.6476267,5.98299507 L21.134337,3.43976303 C20.9478471,2.51517974 20.3380719,1.72911458 19.4843735,1.3127847 C18.6306752,0.896454815 17.6301475,0.897210685 16.7770907,1.31482997 C16.2215566,0.559285298 15.3602439,0.0824272887 14.4197391,0.00970363197 C13.4792344,-0.0630200247 12.5537035,0.275671951 11.886627,0.936679401 C11.1227616,1.69482158 10.4520839,2.53984897 9.88857527,3.4541457 C9.59855381,3.35757981 9.29229575,3.31805828 8.98699004,3.33779927 C8.35102558,3.37798384 7.76012228,3.6769275 7.35428593,4.16379998 C6.34471268,5.36361462 5.47014075,6.66891796 4.74606906,8.05657777 C3.98011497,8.03397093 3.25939015,8.4151274 2.85197655,9.05827161 L1.26516816,11.5741298 C0.0673635402,13.4732823 -0.299599288,15.7734689 0.248599918,17.9461556 L3.86835621,32.2943858 L3.86835621,36.7652349 L3.09790229,45.1639387 C3.07822548,45.3784493 3.15051764,45.5912675 3.2970906,45.7503217 C3.44366355,45.909376 3.65099513,45.9999926 3.86835621,46 L21.6626426,46 C21.8800037,45.9999926 22.0873353,45.909376 22.2339082,45.7503217 C22.3804812,45.5912675 22.4527733,45.3784493 22.4330965,45.1639387 L21.6626426,36.7652349 Z M23.9526599,12.1614826 C24.1583681,11.8556471 24.5458605,11.725059 24.897075,11.8432071 C25.2482895,11.9613552 25.4754761,12.2987204 25.4507851,12.6654498 C25.0016394,19.3858349 23.4028886,25.9816558 20.7228557,32.1710378 L20.5010364,32.6839549 L20.2427146,32.5559628 L20.4995955,31.5376869 C21.7284127,26.6363963 21.8961274,21.5328275 20.9917071,16.5626963 L23.9526599,12.1614826 Z M1.74965629,17.5742869 C1.30345866,15.8054937 1.60223437,13.9329418 2.57734108,12.3868413 L3.51646743,10.8978687 C3.48780412,10.9798569 3.45824433,11.061435 3.43052586,11.1438622 C3.20791566,11.8051006 3.09451142,12.4976209 3.09469158,13.1946855 L3.09469158,17.6333403 C3.0946916,18.0567585 3.44107304,18.4000068 3.86835621,18.4000068 C4.29563937,18.4000068 4.64202082,18.0567585 4.64202083,17.6333403 L4.64202083,13.1946855 C4.64187623,12.6624215 4.72849264,12.1336287 4.89852354,11.6287376 C5.6930625,9.26063393 6.92928502,7.06144056 8.54292588,5.14548286 C8.67890761,4.98193129 8.87709629,4.88139633 9.09049766,4.86771672 C9.10246819,4.86690885 9.11434491,4.86737747 9.12626804,4.86710243 C8.53265587,6.13918645 8.14056203,7.49437945 7.96381083,8.88490052 L6.96896419,16.771589 C6.93468356,17.0433869 7.049333,17.3126616 7.26972518,17.4779799 C7.49011735,17.6432983 7.78276945,17.6795444 8.03744226,17.5730648 C8.29211507,17.4665852 8.47011773,17.2335566 8.50439835,16.9617587 L9.49924499,9.07507023 C9.84023424,6.4067279 11.0646882,3.92581285 12.9808325,2.02088668 C13.3349699,1.66985791 13.8287554,1.49382015 14.3273976,1.54082746 C14.8260398,1.58783476 15.2774722,1.85297879 15.5584645,2.26388162 C14.970967,2.91285651 14.5815408,3.71382604 14.4355077,4.57357267 L12.3891503,16.7406118 L13.9155132,16.9927359 L15.9618716,4.82564878 C16.103181,3.99333285 16.5845339,3.25557433 17.2924577,2.78629007 C17.712746,2.50862349 18.2450872,2.45694178 18.7117649,2.64849831 C19.1784426,2.84005485 19.5179854,3.24961753 19.6170405,3.74045825 L20.1093639,6.17999673 L19.3439194,16.0411878 C19.3385142,16.1111601 19.3428037,16.1815365 19.3566685,16.2503555 C20.3458351,21.1877435 20.2235538,26.2805882 18.998543,31.1657703 L18.5911225,32.7807111 C18.5031157,33.1293029 18.6712789,33.4916897 18.9956156,33.6523821 L20.1153134,34.2071688 L20.1153134,36.0333358 L5.41568546,36.0333358 L5.41568546,32.9666699 L10.8313378,32.9666699 L10.8313378,31.4333369 L5.24604499,31.4333369 L1.74965629,17.5742869 Z M5.34851396,37.5666687 L14.2231561,37.5666687 L9.88947369,38.5771304 C8.64828084,38.8657164 7.63643024,39.75293 7.19625316,40.9386075 C6.75607608,42.124285 6.94646658,43.4497869 7.70301139,44.466667 L4.71559054,44.466667 L5.34851396,37.5666687 Z M10.7588068,44.466667 C9.61730156,44.4666714 8.65693754,43.6190639 8.52533405,42.4954269 C8.39373056,41.3717899 9.13265569,40.3287412 10.2438169,40.0696585 L20.1991535,37.7484147 L20.8154083,44.466667 L10.7588068,44.466667 Z" id="Shape"></path>
            </g>
        </g>
    </g>
</svg>