<?xml version="1.0" encoding="UTF-8"?>
<svg width="80px" height="60px" viewBox="0 0 80 60" version="1.1" xmlns="http://www.w3.org/2000/svg" xmlns:xlink="http://www.w3.org/1999/xlink">
    <!-- Generator: Sketch 48.2 (47327) - http://www.bohemiancoding.com/sketch -->
    <title>icon</title>
    <desc>Created with Sketch.</desc>
    <defs></defs>
    <g id="User-App" stroke="none" stroke-width="1" fill="none" fill-rule="evenodd">
        <g id="icon" fill-rule="nonzero">
            <g id="motorcycle" transform="translate(4.000000, 7.000000)">
                <path d="M60.0470862,19.7014165 C59.4651766,19.7014165 58.8935326,19.7450417 58.3335605,19.8254407 L57.6011813,17.1075347 C58.3971234,16.9749812 59.2140188,16.9049292 60.0472268,16.9049292 C61.2064055,16.9049292 62.3627717,17.0397199 63.4839814,17.3053862 C64.0262345,17.4338848 64.5936597,17.2318385 64.930318,16.7902732 C68.1963527,12.50983 68.3836663,9.95747603 65.6725411,6.67551856 C62.1734893,2.44023859 58.9541423,0.264012191 55.8301396,0.0226753393 C53.4898447,-0.15867686 51.2361752,0.746406246 48.9330055,2.78742248 C48.6300974,3.05574544 48.4585339,3.44124121 48.4623308,3.84477432 C48.4662684,4.24830743 48.645285,4.6303076 48.9533962,4.89289775 L51.2495347,6.84987955 C51.1557372,7.25523038 51.075018,7.63806948 51.0003457,7.99266407 C50.8082508,8.90375962 50.6562343,9.62091878 50.4136548,10.2155918 C50.082481,10.0237528 49.756229,9.83401112 49.4357428,9.64734559 C44.7166214,6.89965702 40.9898964,4.72916342 37.1955304,5.77323194 C34.6748125,6.46676079 32.462909,8.52763209 30.2818024,12.2285033 L19.6164587,9.19389518 L18.957908,7.16839945 C18.2800915,5.08333853 16.8326299,3.94376997 14.4033188,3.58330276 L2.34001371,1.55179458 C1.83390137,1.46622207 1.32132024,1.66225583 1.00266212,2.06243316 C0.684004008,2.46247066 0.610034824,3.00345112 0.809442243,3.47382028 C3.81391297,10.5549455 4.95199777,12.4255159 9.24066352,14.5442745 L19.592271,19.6579311 C22.2634586,20.9774536 23.2201361,21.9861466 24.0430784,24.3508562 L26.0744184,30.1882437 L23.8208896,30.1882437 C23.1222605,24.2917105 18.0681684,19.7014165 11.953195,19.7014165 C5.36220329,19.7014165 0,25.0330593 0,31.5864874 C0,38.1399155 5.36220329,43.4715583 11.953195,43.4715583 C18.068309,43.4715583 23.1224011,38.8812643 23.8208896,32.984731 L27.0475491,32.984731 L28.4230103,36.9375658 C28.6190427,37.5007783 29.1525771,37.8785837 29.7519243,37.8785837 L44.6385741,37.8785837 C45.0873111,37.8785837 45.5093292,37.6656312 45.7741276,37.305164 C46.038926,36.9446968 46.1147233,36.4803401 45.9781757,36.055274 C45.5156573,34.6139645 45.2810934,33.1105729 45.2810934,31.5864874 C45.2810934,25.2959291 49.2809138,19.9175849 54.8842903,17.8316851 L55.6170915,20.5511291 C51.2135345,22.3050859 48.0936099,26.5890248 48.0936099,31.5866272 C48.0936099,38.1400553 53.4558132,43.4716981 60.046805,43.4716981 C66.6377967,43.4716981 72,38.1400553 72,31.5866272 C72,25.0331991 66.638078,19.7014165 60.0470862,19.7014165 Z M11.953195,40.675071 C6.91302488,40.675071 2.81251648,36.5979324 2.81251648,31.5864874 C2.81251648,26.5750424 6.91302488,22.4979037 11.953195,22.4979037 C16.5152374,22.4979037 20.3070721,25.8383078 20.9855917,30.1882437 L18.1220281,30.1882437 C17.4806337,27.3897989 14.9592127,25.294391 11.953195,25.294391 C8.46384647,25.294391 5.62503296,28.1170254 5.62503296,31.5864874 C5.62503296,35.0559493 8.46384647,37.8785837 11.953195,37.8785837 C14.9592127,37.8785837 17.480493,35.7831758 18.1220281,32.984731 L20.9855917,32.984731 C20.3070721,37.334667 16.5152374,40.675071 11.953195,40.675071 Z M11.953195,32.984731 L15.1745108,32.984731 C14.6308514,34.2179819 13.3919378,35.0820965 11.953195,35.0820965 C10.0146681,35.0820965 8.43754944,33.5139662 8.43754944,31.5864874 C8.43754944,29.6590085 10.0146681,28.0908783 11.953195,28.0908783 C13.3919378,28.0908783 14.6308514,28.9549929 15.1745108,30.1882437 L11.953195,30.1882437 C11.1765186,30.1882437 10.5469368,30.8143772 10.5469368,31.5864874 C10.5469368,32.3585975 11.1765186,32.984731 11.953195,32.984731 Z M37.9456286,8.46848638 C40.5934722,7.74014127 43.868507,9.64664647 48.0145782,12.0604345 C48.1251101,12.1247537 48.2373295,12.1900516 48.349127,12.2552098 C48.1114694,12.3705649 47.8497647,12.4841023 47.557263,12.5976397 L40.7992078,15.2210244 L33.0829282,13.0255022 C34.7175628,10.4131636 36.3161972,8.91676329 37.9456286,8.46848638 Z M45.4435163,21.8686941 L40.8506769,21.8686941 C40.0741411,21.8686941 39.4444186,22.4948276 39.4444186,23.2669377 C39.4444186,24.0390479 40.0741411,24.6651814 40.8506769,24.6651814 L43.9073198,24.6651814 C43.5170831,25.5613157 43.2005344,26.4959018 42.9645642,27.4618085 L37.6870177,27.4618085 C36.9104819,27.4618085 36.2807595,28.087942 36.2807595,28.8600521 C36.2807595,29.6321622 36.9104819,30.2582957 37.6870177,30.2582957 L42.5192023,30.2582957 C42.4858739,30.6967849 42.4687176,31.1396087 42.4687176,31.5864874 C42.4687176,32.7663254 42.5869839,33.9359562 42.8214072,35.0820965 L30.7534614,35.0820965 L26.7009065,23.4365447 C25.5036182,19.9957467 23.718514,18.573733 20.8435596,17.1533971 L10.4920927,12.0397405 C7.58718508,10.604723 6.56117907,9.52947365 4.42043215,4.73839183 L13.9478317,6.34301623 C13.9576755,6.34469412 13.9673787,6.34623219 13.9772225,6.34763043 C15.5291691,6.57554414 15.9843749,7.11414759 16.2817985,8.02859893 L17.1709756,10.7632838 C17.3151171,11.2065271 17.6717442,11.5492366 18.1221687,11.6774555 L40.4816747,18.0394641 C40.7775514,18.1237782 41.093397,18.1089568 41.3799925,17.9976566 L48.5800346,15.2027074 C52.6898244,13.6074512 53.1825772,11.2715454 53.7529556,8.56664308 C53.8775501,7.97574532 54.0065039,7.36471285 54.1814425,6.70474186 C54.3191152,6.18641294 54.146286,5.63550495 53.7369242,5.28650333 L52.0840083,3.87777287 C53.3067498,3.06343578 54.4524284,2.72226433 55.612029,2.81077315 C57.9000111,2.98765097 60.5536204,4.88520741 63.4991689,8.45058886 C64.196673,9.29498819 64.7536919,9.97089917 64.74652,10.9423988 L62.83204,10.1589629 C62.1131608,9.86477248 61.291906,10.2058041 60.9963105,10.9196075 C60.7005744,11.6336905 61.0432796,12.4509639 61.761315,12.7448747 L63.762983,13.5641057 C63.6015445,13.8237595 63.4191528,14.0983746 63.2110266,14.3921455 C62.1696924,14.2036623 61.1092331,14.1085817 60.046805,14.1085817 C53.9686756,14.1084419 48.6015504,17.1922683 45.4435163,21.8686941 Z M60.0470862,40.675071 C55.0069161,40.675071 50.9064077,36.5979324 50.9064077,31.5864874 C50.9064077,27.8824002 53.1478427,24.6907692 56.3518614,23.2765856 L57.092397,26.0246937 C55.0879165,27.0817658 53.7189241,29.1775932 53.7189241,31.5864874 C53.7189241,35.0559493 56.5577376,37.8785837 60.0470862,37.8785837 C63.5364348,37.8785837 66.3752483,35.0559493 66.3752483,31.5864874 C66.3752483,28.1170254 63.5364348,25.294391 60.0470862,25.294391 C59.9672107,25.294391 59.8880384,25.2974671 59.8090067,25.3004035 L59.0680492,22.5507573 C59.3899417,22.5165004 59.7163343,22.4979037 60.0472268,22.4979037 C65.087397,22.4979037 69.1879054,26.5750424 69.1879054,31.5864874 C69.1879054,36.5979324 65.0872564,40.675071 60.0470862,40.675071 Z M58.6887814,31.9483528 C58.8571105,32.5730881 59.4252388,32.9851505 60.0462425,32.9851505 C60.1666182,32.9851505 60.2892439,32.96963 60.4110258,32.9370509 C61.1612646,32.7371021 61.606486,31.9704451 61.405391,31.2246219 L60.5714799,28.1298893 C62.2622242,28.3824121 63.5627318,29.836166 63.5627318,31.5864874 C63.5627318,33.5139662 61.9856132,35.0820965 60.0470862,35.0820965 C58.1085592,35.0820965 56.5314406,33.5139662 56.5314406,31.5864874 C56.5314406,30.482574 57.0492249,29.4972317 57.8554327,28.856137 L58.6887814,31.9483528 Z" id="Shape" fill="#4A4A4A"></path>
                <path d="M33.9625358,21.7358491 L33.961585,21.7358491 C33.2114407,21.7358491 32.6037736,22.3441811 32.6037736,23.0943396 C32.6037736,23.8444981 33.2123915,24.4528302 33.9625358,24.4528302 C34.7126801,24.4528302 35.3207547,23.8444981 35.3207547,23.0943396 C35.3207547,22.3441811 34.7126801,21.7358491 33.9625358,21.7358491 Z" id="Shape" fill="#000000"></path>
            </g>
        </g>
    </g>
</svg>