<?xml version="1.0" encoding="UTF-8"?>
<svg width="120px" height="120px" viewBox="0 0 120 120" version="1.1" xmlns="http://www.w3.org/2000/svg" xmlns:xlink="http://www.w3.org/1999/xlink">
    <!-- Generator: Sketch 48.2 (47327) - http://www.bohemiancoding.com/sketch -->
    <title>Logo - bg-transparent</title>
    <desc>Created with Sketch.</desc>
    <defs></defs>
    <g id="Page-1" stroke="none" stroke-width="1" fill="none" fill-rule="evenodd">
        <g id="Logo---bg-transparent" fill="#FF5A5F" fill-rule="nonzero">
            <g id="Group" transform="translate(14.000000, 5.000000)">
                <path d="M76.26,45.13 C76.26,36.81 73.03,28.99 67.15,23.12 C61.28,17.24 53.46,14 45.14,14 C36.82,14 29,17.24 23.12,23.12 C17.24,29 14,36.82 14,45.13 C14,53.45 17.24,61.27 23.08,67.1 L51.28,95.99 L58.49,88.95 L52.34,82.65 L45.3,75.44 L30.25,60.03 C26.27,56.05 24.08,50.76 24.08,45.14 C24.08,39.52 26.27,34.23 30.25,30.26 C34.23,26.28 39.52,24.09 45.14,24.09 C50.77,24.09 56.05,26.28 60.03,30.26 C64,34.23 66.19,39.51 66.19,45.14 C66.19,50.77 64,56.06 60.03,60.03 L48.04,72.58 L55.24,79.62 L67.2,67.11 C73.04,61.24 76.26,53.44 76.26,45.13 Z" id="Shape"></path>
                <path d="M77.81,13.3275 C60.04,-4.4425 31.12,-4.4425 13.35,13.3275 C4.74,21.9375 0,33.3775 0,45.5575 C0,57.7275 4.74,69.1775 13.35,77.7875 L45.58,110.0175 L52.6,102.9975 L45.58,95.7675 L20.48,70.6675 C6.64,56.8275 6.64,34.2975 20.48,20.4575 C27.4,13.5375 36.49,10.0775 45.58,10.0775 C54.67,10.0775 63.76,13.5375 70.69,20.4575 C77.4,27.1675 81.09,36.0775 81.09,45.5575 C81.09,55.0375 77.4,63.9575 70.69,70.6675 L48.26,93.0975 L51.74,96.6575 L55.26,100.3475 L77.82,77.7875 C95.58,60.0175 95.58,31.0975 77.81,13.3275 Z" id="Shape"></path>
            </g>
        </g>
    </g>
</svg>